#!OML:ASF E:\Steps\Project 1\Capture day 1\Session 2\Subject.ASF
:FULLY-SPECIFIED
:DEGREES
328
root 12.4908 17.9042 10.9797 -153.184 -2.67188 182.113
lowerback -20.7267 -3.43513 -12.3655
upperback 2.23993 -1.37019 -3.71207
thorax 14.5675 -1.60774 2.23916
lowerneck -0.1193 -2.18624 -1.38559
upperneck 19.5603 -3.06187 11.8058
head 6.10332 -0.0457251 3.92909
rclavicle -1.98785e-014 3.81667e-014
rhumerus -40.1065 -12.2341 -74.4604
rradius 35.605
rwrist -5.31379
rhand -5.10291 -54.0517
rfingers 7.12502
rthumb 20.6945 277.032
lclavicle -1.98785e-014 3.81667e-014
lhumerus -23.2778 -1.23919 73.6626
lradius 33.2152
lwrist 2.14882
lhand -21.8603 -12.9392
lfingers 7.12502
lthumb 4.54365 16.9921
rfemur -31.7734 2.10583 18.3097
rtibia 54.8578
rfoot -11.1506 -5.30246
rtoes -26.4078
lfemur -43.4592 -8.5422 -11.5472
ltibia 19.2357
lfoot -3.55133 -3.03587
ltoes -29.1616
329
root 12.4781 17.9217 10.9355 -153.277 -2.74705 182.089
lowerback -20.4877 -3.55836 -12.5665
upperback 2.16112 -1.54267 -3.74086
thorax 14.3622 -1.69511 2.27223
lowerneck 0.112071 -2.27772 -1.40191
upperneck 19.4831 -3.19686 12.0455
head 6.05098 -0.097802 4.00273
rclavicle -7.15625e-015 -2.54444e-014
rhumerus -40.6351 -12.6346 -74.0489
rradius 35.2276
rwrist -5.04221
rhand -5.19961 -54.4527
rfingers 7.12502
rthumb 20.6016 276.621
lclavicle -7.15625e-015 -2.54444e-014
lhumerus -23.162 -1.3583 73.6435
lradius 33.0995
lwrist 2.57558
lhand -22.1749 -13.2971
lfingers 7.12502
lthumb 4.23992 16.6404
rfemur -32.8021 2.32562 18.6262
rtibia 55.0164
rfoot -12.4738 -5.30236
rtoes -26.8532
lfemur -43.0735 -8.67049 -11.603
ltibia 18.9941
lfoot -3.65263 -3.10106
ltoes -28.1407
330
root 12.4566 17.933 10.8934 -153.368 -2.94832 182.216
lowerback -20.189 -3.64685 -12.3766
upperback 2.01911 -1.7783 -3.79234
thorax 14.0374 -1.77171 2.05213
lowerneck 0.51461 -2.20342 -1.35277
upperneck 19.305 -3.07668 12.2688
head 5.91686 -0.0291618 4.07062
rclavicle 2.38542e-015 -5.725e-014
rhumerus -41.2974 -12.961 -73.7083
rradius 34.7669
rwrist -4.84485
rhand -5.56352 -53.8153
rfingers 7.12502
rthumb 20.2519 277.22
lclavicle 2.38542e-015 -5.725e-014
lhumerus -23.1972 -1.53303 73.5459
lradius 33.0972
lwrist 2.79529
lhand -22.4139 -13.038
lfingers 7.12502
lthumb 4.00906 16.904
rfemur -33.7004 2.3986 19.1472
rtibia 54.8626
rfoot -13.5013 -5.35671
rtoes -27.945
lfemur -42.6362 -8.94991 -11.4902
ltibia 18.5949
lfoot -3.69823 -3.07522
ltoes -27.7147
331
root 12.4392 17.9473 10.8453 -153.462 -2.98806 182.262
lowerback -20.1574 -3.76852 -12.3831
upperback 2.00241 -1.95143 -3.81528
thorax 14.0219 -1.85128 1.97301
lowerneck 0.441626 -2.10644 -1.41021
upperneck 19.5407 -2.94663 12.3343
head 5.99545 0.0565459 4.11549
rclavicle 7.95139e-016 -9.22361e-014
rhumerus -41.718 -13.3369 -73.3369
rradius 34.2284
rwrist -4.3426
rhand -6.07734 -52.8679
rfingers 7.12502
rthumb 19.758 278.116
lclavicle 7.95139e-016 -9.22361e-014
lhumerus -23.0421 -1.27562 73.4618
lradius 33.1212
lwrist 2.55736
lhand -22.3326 -11.9043
lfingers 7.12502
lthumb 4.08759 18.0362
rfemur -34.5679 2.49203 19.5322
rtibia 54.475
rfoot -14.4264 -5.49733
rtoes -29.4132
lfemur -42.0774 -9.17148 -11.4506
ltibia 18.0501
lfoot -3.74433 -2.94141
ltoes -27.4918
332
root 12.4113 17.9643 10.7736 -154.41 -2.82147 182.863
lowerback -19.7869 -3.59484 -11.8229
upperback 2.31197 -1.85504 -3.75522
thorax 14.1405 -1.7655 1.76899
lowerneck 0.160155 -2.07005 -1.43364
upperneck 19.7734 -2.91787 12.2958
head 6.11637 0.0847882 4.11459
rclavicle 2.8625e-014 1.49486e-013
rhumerus -42.0228 -13.7039 -72.9423
rradius 33.7479
rwrist -3.92077
rhand -6.46585 -52.5101
rfingers 7.12502
rthumb 19.3845 278.436
lclavicle 2.8625e-014 1.49486e-013
lhumerus -22.7222 -0.896367 73.4461
lradius 33.0357
lwrist 2.2543
lhand -22.1583 -11.3647
lfingers 7.12502
lthumb 4.25593 18.5725
rfemur -34.1898 2.97945 20.4533
rtibia 53.5926
rfoot -15.2987 -5.53089
rtoes -30.7286
lfemur -40.3237 -9.29564 -10.9983
ltibia 17.3214
lfoot -3.91845 -2.57586
ltoes -26.2668
333
root 12.396 17.9818 10.7203 -154.685 -2.75385 182.76
lowerback -19.7464 -3.67417 -12.096
upperback 2.3996 -1.89678 -3.82305
thorax 14.238 -1.81345 1.82195
lowerneck 0.150167 -2.1253 -1.45833
upperneck 19.8079 -3.00909 12.379
head 6.13711 0.0479383 4.14275
rclavicle -1.90833e-014 -1.04958e-013
rhumerus -42.417 -14.099 -72.6058
rradius 33.2981
rwrist -3.65905
rhand -6.44311 -51.9509
rfingers 7.12502
rthumb 19.4063 278.997
lclavicle -1.90833e-014 -1.04958e-013
lhumerus -22.5266 -0.888019 73.4129
lradius 33.0893
lwrist 2.32615
lhand -22.1874 -11.5769
lfingers 7.12502
lthumb 4.22782 18.3609
rfemur -34.6749 3.25469 20.5973
rtibia 52.826
rfoot -16.0678 -5.71816
rtoes -30.8709
lfemur -39.622 -9.51171 -11.2275
ltibia 17.0425
lfoot -4.05183 -2.50191
ltoes -25.1403
334
root 12.3823 17.9913 10.6832 -154.731 -3.00907 182.763
lowerback -19.7944 -3.85602 -12.1549
upperback 2.38071 -2.12584 -3.80557
thorax 14.2782 -1.92461 1.79557
lowerneck 0.145652 -2.2715 -1.67286
upperneck 20.1663 -3.22292 12.5614
head 6.27275 -0.0269168 4.24105
rclavicle -2.38542e-015 -1.55847e-013
rhumerus -42.8495 -14.631 -72.1628
rradius 32.7466
rwrist -3.15994
rhand -6.34489 -51.2644
rfingers 7.12502
rthumb 19.5008 279.694
lclavicle -2.38542e-015 -1.55847e-013
lhumerus -22.4653 -1.02314 73.4075
lradius 33.2261
lwrist 2.68203
lhand -22.2424 -11.5973
lfingers 7.12502
lthumb 4.17468 18.3415
rfemur -35.4957 3.44839 20.9473
rtibia 52.1381
rfoot -16.8988 -5.94865
rtoes -30.5301
lfemur -39.3979 -9.65208 -11.3031
ltibia 16.923
lfoot -4.04495 -2.69721
ltoes -25.2904
335
root 12.3671 18.0018 10.6406 -154.736 -2.9177 182.588
lowerback -19.96 -3.95809 -12.4522
upperback 2.49091 -2.15667 -3.88533
thorax 14.5261 -1.97593 1.83661
lowerneck -0.0759658 -2.1303 -1.38877
upperneck 20.1081 -3.03412 12.3375
head 6.27369 0.0630681 4.12473
rclavicle 3.33958e-014 1.145e-013
rhumerus -42.9392 -15.5982 -71.6404
rradius 31.9558
rwrist -2.34313
rhand -6.17552 -51.1144
rfingers 7.12502
rthumb 19.6636 279.86
lclavicle 3.33958e-014 1.145e-013
lhumerus -21.9598 -0.838021 73.3533
lradius 33.1282
lwrist 2.64691
lhand -22.1583 -11.1872
lfingers 7.12502
lthumb 4.2559 18.7501
rfemur -36.3819 3.75248 20.9893
rtibia 51.485
rfoot -17.7523 -6.15917
rtoes -31.1782
lfemur -39.059 -9.74896 -11.6041
ltibia 16.6837
lfoot -4.16042 -2.64626
ltoes -26.0537
336
root 12.3499 18.0108 10.5941 -154.939 -2.94477 182.71
lowerback -19.9662 -3.99185 -12.3799
upperback 2.45969 -2.2231 -3.92019
thorax 14.4952 -1.99815 1.73574
lowerneck 0.388414 -2.10992 -1.26547
upperneck 19.915 -2.96149 12.3057
head 6.12344 0.0878689 4.09196
rclavicle -1.59028e-015 -6.04305e-014
rhumerus -43.4983 -16.0976 -71.1752
rradius 31.2969
rwrist -1.8829
rhand -5.68323 -52.0096
rfingers 7.12502
rthumb 20.1368 279.014
lclavicle -1.59028e-015 -6.04305e-014
lhumerus -21.9325 -0.613519 73.2326
lradius 33.0966
lwrist 1.89878
lhand -22.0158 -10.2591
lfingers 7.12502
lthumb 4.39354 19.6754
rfemur -36.5688 4.00523 21.38
rtibia 49.9504
rfoot -18.3117 -6.44553
rtoes -32.1181
lfemur -38.5026 -9.84358 -11.5823
ltibia 16.4391
lfoot -4.33822 -2.59652
ltoes -26.368
337
root 12.3396 18.0164 10.5522 -155.147 -3.25201 183.116
lowerback -19.9022 -4.12368 -12.0518
upperback 2.26913 -2.51249 -3.76775
thorax 14.255 -2.09031 1.65285
lowerneck 1.49043 -2.03289 -1.57384
upperneck 19.5722 -2.76604 12.5062
head 5.81079 0.140475 4.21275
rclavicle -5.56597e-015 2.22639e-014
rhumerus -44.3117 -15.9458 -70.7904
rradius 30.7793
rwrist -1.68253
rhand -5.31829 -52.8404
rfingers 7.12502
rthumb 20.4876 278.221
lclavicle -5.56597e-015 2.22639e-014
lhumerus -22.4293 -0.818994 73.3861
lradius 33.0305
lwrist 2.67307
lhand -22.4783 -11.0579
lfingers 7.12502
lthumb 3.94691 18.8853
rfemur -36.8871 4.22119 22.1886
rtibia 48.7217
rfoot -19.2663 -6.81803
rtoes -33.1267
lfemur -38.0754 -9.91035 -11.1749
ltibia 16.261
lfoot -4.3606 -2.6878
ltoes -26.1304
338
root 12.3184 18.028 10.5197 -155.039 -3.37838 182.921
lowerback -19.9174 -4.30969 -12.2414
upperback 2.18496 -2.73361 -3.78688
thorax 14.2019 -2.20568 1.66327
lowerneck 1.60454 -2.00378 -1.68234
upperneck 19.5336 -2.71936 12.4827
head 5.77563 0.14548 4.22446
rclavicle 7.95139e-016 3.81667e-014
rhumerus -44.6648 -16.2943 -70.3877
rradius 30.1995
rwrist -1.1414
rhand -5.091 -53.0053
rfingers 7.12502
rthumb 20.706 278.079
lclavicle 7.95139e-016 3.81667e-014
lhumerus -22.3786 -0.785169 73.537
lradius 33.0188
lwrist 2.88798
lhand -22.6021 -11.6293
lfingers 7.12502
lthumb 3.82732 18.316
rfemur -37.6702 4.15589 22.2479
rtibia 47.7331
rfoot -20.3493 -6.95109
rtoes -34.6384
lfemur -38.0358 -10.2137 -11.4403
ltibia 16.2175
lfoot -4.45516 -2.68909
ltoes -26.1227
